<mxfile host="Electron" modified="2024-04-23T01:55:31.407Z" agent="Mozilla/5.0 (Windows NT 10.0; Win64; x64) AppleWebKit/537.36 (KHTML, like Gecko) draw.io/22.1.16 Chrome/120.0.6099.109 Electron/28.1.0 Safari/537.36" etag="qSC5OowK_CA0mmfiEhP5" version="22.1.16" type="device">
  <diagram name="第 1 页" id="BisgwHGx5lDDIdVL5ZGD">
    <mxGraphModel dx="1102" dy="810" grid="1" gridSize="10" guides="1" tooltips="1" connect="1" arrows="1" fold="1" page="1" pageScale="1" pageWidth="827" pageHeight="1169" math="0" shadow="0">
      <root>
        <mxCell id="0" />
        <mxCell id="1" parent="0" />
        <mxCell id="AbzLuiVPxmoaMCsTURi3-15" style="edgeStyle=orthogonalEdgeStyle;rounded=0;orthogonalLoop=1;jettySize=auto;html=1;fontFamily=Comic Sans MS;fontSize=17;" edge="1" parent="1" source="AbzLuiVPxmoaMCsTURi3-1" target="AbzLuiVPxmoaMCsTURi3-6">
          <mxGeometry relative="1" as="geometry" />
        </mxCell>
        <mxCell id="AbzLuiVPxmoaMCsTURi3-17" value="new game or load save" style="edgeLabel;html=1;align=center;verticalAlign=middle;resizable=0;points=[];fontFamily=Comic Sans MS;fontSize=17;" vertex="1" connectable="0" parent="AbzLuiVPxmoaMCsTURi3-15">
          <mxGeometry x="-0.1778" y="-3" relative="1" as="geometry">
            <mxPoint as="offset" />
          </mxGeometry>
        </mxCell>
        <mxCell id="AbzLuiVPxmoaMCsTURi3-1" value="main screen" style="rounded=1;whiteSpace=wrap;html=1;fontFamily=Comic Sans MS;fontSize=17;" vertex="1" parent="1">
          <mxGeometry x="414" y="140" width="120" height="60" as="geometry" />
        </mxCell>
        <mxCell id="AbzLuiVPxmoaMCsTURi3-22" style="edgeStyle=orthogonalEdgeStyle;rounded=0;orthogonalLoop=1;jettySize=auto;html=1;fontFamily=Comic Sans MS;fontSize=17;" edge="1" parent="1" source="AbzLuiVPxmoaMCsTURi3-2" target="AbzLuiVPxmoaMCsTURi3-6">
          <mxGeometry relative="1" as="geometry" />
        </mxCell>
        <mxCell id="AbzLuiVPxmoaMCsTURi3-23" value="" style="edgeStyle=orthogonalEdgeStyle;rounded=0;orthogonalLoop=1;jettySize=auto;html=1;" edge="1" parent="1" source="AbzLuiVPxmoaMCsTURi3-2" target="AbzLuiVPxmoaMCsTURi3-6">
          <mxGeometry relative="1" as="geometry" />
        </mxCell>
        <mxCell id="AbzLuiVPxmoaMCsTURi3-2" value="pause screen" style="rounded=1;whiteSpace=wrap;html=1;fontFamily=Comic Sans MS;fontSize=17;" vertex="1" parent="1">
          <mxGeometry x="210" y="260" width="120" height="60" as="geometry" />
        </mxCell>
        <mxCell id="AbzLuiVPxmoaMCsTURi3-21" style="edgeStyle=orthogonalEdgeStyle;rounded=0;orthogonalLoop=1;jettySize=auto;html=1;entryX=1;entryY=0.5;entryDx=0;entryDy=0;fontFamily=Comic Sans MS;fontSize=17;" edge="1" parent="1" source="AbzLuiVPxmoaMCsTURi3-3" target="AbzLuiVPxmoaMCsTURi3-1">
          <mxGeometry relative="1" as="geometry">
            <Array as="points">
              <mxPoint x="690" y="170" />
            </Array>
          </mxGeometry>
        </mxCell>
        <mxCell id="AbzLuiVPxmoaMCsTURi3-3" value="Game end screen" style="rounded=1;whiteSpace=wrap;html=1;fontFamily=Comic Sans MS;fontSize=17;" vertex="1" parent="1">
          <mxGeometry x="630" y="260" width="120" height="60" as="geometry" />
        </mxCell>
        <mxCell id="AbzLuiVPxmoaMCsTURi3-24" style="edgeStyle=orthogonalEdgeStyle;rounded=0;orthogonalLoop=1;jettySize=auto;html=1;entryX=1;entryY=0.25;entryDx=0;entryDy=0;" edge="1" parent="1" source="AbzLuiVPxmoaMCsTURi3-4" target="AbzLuiVPxmoaMCsTURi3-1">
          <mxGeometry relative="1" as="geometry">
            <Array as="points">
              <mxPoint x="770" y="400" />
              <mxPoint x="770" y="155" />
            </Array>
          </mxGeometry>
        </mxCell>
        <mxCell id="AbzLuiVPxmoaMCsTURi3-4" value="Game victory screen" style="rounded=1;whiteSpace=wrap;html=1;fontFamily=Comic Sans MS;fontSize=17;" vertex="1" parent="1">
          <mxGeometry x="414" y="370" width="120" height="60" as="geometry" />
        </mxCell>
        <mxCell id="AbzLuiVPxmoaMCsTURi3-9" style="edgeStyle=orthogonalEdgeStyle;rounded=0;orthogonalLoop=1;jettySize=auto;html=1;fontFamily=Comic Sans MS;fontSize=17;" edge="1" parent="1" source="AbzLuiVPxmoaMCsTURi3-6" target="AbzLuiVPxmoaMCsTURi3-3">
          <mxGeometry relative="1" as="geometry" />
        </mxCell>
        <mxCell id="AbzLuiVPxmoaMCsTURi3-19" value="failture" style="edgeLabel;html=1;align=center;verticalAlign=middle;resizable=0;points=[];fontFamily=Comic Sans MS;fontSize=17;" vertex="1" connectable="0" parent="AbzLuiVPxmoaMCsTURi3-9">
          <mxGeometry x="0.0139" y="-4" relative="1" as="geometry">
            <mxPoint y="-4" as="offset" />
          </mxGeometry>
        </mxCell>
        <mxCell id="AbzLuiVPxmoaMCsTURi3-10" style="edgeStyle=orthogonalEdgeStyle;rounded=0;orthogonalLoop=1;jettySize=auto;html=1;fontFamily=Comic Sans MS;fontSize=17;" edge="1" parent="1" source="AbzLuiVPxmoaMCsTURi3-6" target="AbzLuiVPxmoaMCsTURi3-4">
          <mxGeometry relative="1" as="geometry" />
        </mxCell>
        <mxCell id="AbzLuiVPxmoaMCsTURi3-18" value="victory" style="edgeLabel;html=1;align=center;verticalAlign=middle;resizable=0;points=[];fontFamily=Comic Sans MS;fontSize=17;" vertex="1" connectable="0" parent="AbzLuiVPxmoaMCsTURi3-10">
          <mxGeometry x="-0.0533" y="3" relative="1" as="geometry">
            <mxPoint as="offset" />
          </mxGeometry>
        </mxCell>
        <mxCell id="AbzLuiVPxmoaMCsTURi3-11" style="edgeStyle=orthogonalEdgeStyle;rounded=0;orthogonalLoop=1;jettySize=auto;html=1;curved=0;fontFamily=Comic Sans MS;fontSize=17;" edge="1" parent="1" source="AbzLuiVPxmoaMCsTURi3-6" target="AbzLuiVPxmoaMCsTURi3-2">
          <mxGeometry relative="1" as="geometry" />
        </mxCell>
        <mxCell id="AbzLuiVPxmoaMCsTURi3-16" value="pause" style="edgeLabel;html=1;align=center;verticalAlign=middle;resizable=0;points=[];fontFamily=Comic Sans MS;fontSize=17;" vertex="1" connectable="0" parent="AbzLuiVPxmoaMCsTURi3-11">
          <mxGeometry x="-0.1532" y="-1" relative="1" as="geometry">
            <mxPoint x="-8" y="1" as="offset" />
          </mxGeometry>
        </mxCell>
        <mxCell id="AbzLuiVPxmoaMCsTURi3-6" value="Game play screen" style="rounded=1;whiteSpace=wrap;html=1;fontFamily=Comic Sans MS;fontSize=17;" vertex="1" parent="1">
          <mxGeometry x="414" y="260" width="120" height="60" as="geometry" />
        </mxCell>
      </root>
    </mxGraphModel>
  </diagram>
</mxfile>
